<?xml version="1.0" encoding="UTF-8"?>
<svg id="Layer_2" data-name="Layer 2" xmlns="http://www.w3.org/2000/svg" viewBox="0 0 66.4 65">
  <defs>
    <style>
      .cls-1 {
        fill: #111827;
        stroke: #299b77;
        stroke-miterlimit: 10;
      }

      .cls-2 {
        fill: #6ee7b7;
        stroke-width: 0px;
      }
    </style>
  </defs>
  <g id="Layer_1-2" data-name="Layer 1">
    <rect class="cls-1" x=".5" y=".5" width="65.4" height="64" rx="5.77" ry="5.77"/>
    <path class="cls-2" d="M33.2,14.85c1.39,1.4,3.84,3.04,7.92,3.55.99.12,1.97.19,2.93.19,1.82,0,3.36-.23,4.6-.52-1.01,3.83-2.19,10.58-1.18,19.2.95,8.13-4.65,10.64-11.51,12.87-1.03.34-1.96.64-2.76.97-.8-.33-1.73-.63-2.76-.97-6.85-2.24-12.45-4.75-11.51-12.87,1-8.62-.17-15.37-1.18-19.2,1.24.3,2.78.52,4.6.52.96,0,1.94-.06,2.93-.19,4.08-.51,6.53-2.16,7.92-3.55M33.2,12.01s-1.69,3.88-8.13,4.69c-.97.12-1.88.17-2.72.17-4.73,0-7.32-1.64-7.32-1.64,0,0,3.73,8.68,2.2,21.83-1.47,12.6,11.65,13.77,15.97,15.92,4.32-2.15,17.44-3.32,15.97-15.92-1.53-13.15,2.2-21.83,2.2-21.83,0,0-2.59,1.64-7.32,1.64-.84,0-1.75-.05-2.72-.17-6.45-.81-8.13-4.69-8.13-4.69h0Z"/>
  </g>
</svg>